<mxfile host="Electron" modified="2023-06-18T12:30:01.817Z" agent="Mozilla/5.0 (Windows NT 10.0; Win64; x64) AppleWebKit/537.36 (KHTML, like Gecko) draw.io/21.2.8 Chrome/112.0.5615.165 Electron/24.2.0 Safari/537.36" etag="wNR9vPYB4k0GLBJnByUH" version="21.2.8" type="device">
  <diagram name="Page-1" id="7oLeeqB4X83rpsUO6XK-">
    <mxGraphModel dx="3457" dy="1993" grid="0" gridSize="10" guides="1" tooltips="1" connect="1" arrows="1" fold="1" page="1" pageScale="1" pageWidth="827" pageHeight="1169" math="0" shadow="0">
      <root>
        <mxCell id="0" />
        <mxCell id="1" parent="0" />
        <mxCell id="waw0lP77cIF_jgCd4xR0-1" value="systick_init" style="text;html=1;strokeColor=none;fillColor=none;align=center;verticalAlign=middle;whiteSpace=wrap;rounded=0;fontSize=16;fontFamily=Calibri;" parent="1" vertex="1">
          <mxGeometry x="254" y="237" width="110" height="30" as="geometry" />
        </mxCell>
        <mxCell id="waw0lP77cIF_jgCd4xR0-121" value="Systick&amp;nbsp;Driver" style="text;html=1;strokeColor=#d6b656;fillColor=#fff2cc;align=center;verticalAlign=middle;whiteSpace=wrap;rounded=0;fontSize=18;" parent="1" vertex="1">
          <mxGeometry x="280" y="34" width="1103" height="58" as="geometry" />
        </mxCell>
        <mxCell id="-xlJ6oY1omePyM3Cr7Uz-23" value="" style="edgeStyle=orthogonalEdgeStyle;rounded=0;orthogonalLoop=1;jettySize=auto;html=1;" edge="1" parent="1" source="-xlJ6oY1omePyM3Cr7Uz-4" target="-xlJ6oY1omePyM3Cr7Uz-9">
          <mxGeometry relative="1" as="geometry" />
        </mxCell>
        <mxCell id="-xlJ6oY1omePyM3Cr7Uz-4" value="Start" style="html=1;dashed=0;whiteSpace=wrap;shape=mxgraph.dfd.start;fillColor=#dae8fc;strokeColor=#6c8ebf;" vertex="1" parent="1">
          <mxGeometry x="260.5" y="299" width="92" height="37" as="geometry" />
        </mxCell>
        <mxCell id="-xlJ6oY1omePyM3Cr7Uz-5" value="Return `&lt;b&gt;retval&lt;/b&gt;`" style="html=1;dashed=0;whiteSpace=wrap;shape=mxgraph.dfd.start;fillColor=#dae8fc;strokeColor=#6c8ebf;" vertex="1" parent="1">
          <mxGeometry x="260.5" y="858" width="92" height="37" as="geometry" />
        </mxCell>
        <mxCell id="-xlJ6oY1omePyM3Cr7Uz-26" style="edgeStyle=orthogonalEdgeStyle;rounded=0;orthogonalLoop=1;jettySize=auto;html=1;entryX=0.5;entryY=0;entryDx=0;entryDy=0;" edge="1" parent="1" source="-xlJ6oY1omePyM3Cr7Uz-6" target="-xlJ6oY1omePyM3Cr7Uz-11">
          <mxGeometry relative="1" as="geometry" />
        </mxCell>
        <mxCell id="-xlJ6oY1omePyM3Cr7Uz-31" value="" style="edgeStyle=orthogonalEdgeStyle;rounded=0;orthogonalLoop=1;jettySize=auto;html=1;" edge="1" parent="1" source="-xlJ6oY1omePyM3Cr7Uz-6" target="-xlJ6oY1omePyM3Cr7Uz-10">
          <mxGeometry relative="1" as="geometry" />
        </mxCell>
        <mxCell id="-xlJ6oY1omePyM3Cr7Uz-6" value="Valid Args" style="rhombus;whiteSpace=wrap;html=1;fillColor=#fff2cc;strokeColor=#d6b656;" vertex="1" parent="1">
          <mxGeometry x="266.5" y="419" width="80" height="80" as="geometry" />
        </mxCell>
        <mxCell id="-xlJ6oY1omePyM3Cr7Uz-7" value="true" style="text;html=1;strokeColor=none;fillColor=none;align=center;verticalAlign=middle;whiteSpace=wrap;rounded=0;" vertex="1" parent="1">
          <mxGeometry x="237.5" y="499" width="60" height="30" as="geometry" />
        </mxCell>
        <mxCell id="-xlJ6oY1omePyM3Cr7Uz-8" value="false" style="text;html=1;strokeColor=none;fillColor=none;align=center;verticalAlign=middle;whiteSpace=wrap;rounded=0;" vertex="1" parent="1">
          <mxGeometry x="352.5" y="417" width="60" height="31" as="geometry" />
        </mxCell>
        <mxCell id="-xlJ6oY1omePyM3Cr7Uz-25" style="edgeStyle=orthogonalEdgeStyle;rounded=0;orthogonalLoop=1;jettySize=auto;html=1;entryX=0.5;entryY=0;entryDx=0;entryDy=0;" edge="1" parent="1" source="-xlJ6oY1omePyM3Cr7Uz-9" target="-xlJ6oY1omePyM3Cr7Uz-6">
          <mxGeometry relative="1" as="geometry" />
        </mxCell>
        <mxCell id="-xlJ6oY1omePyM3Cr7Uz-9" value="set &lt;b&gt;retval &lt;/b&gt;= &lt;b&gt;ST_OK&lt;/b&gt;" style="rounded=0;whiteSpace=wrap;html=1;fillColor=#d5e8d4;strokeColor=#82b366;" vertex="1" parent="1">
          <mxGeometry x="243.5" y="362" width="126" height="35" as="geometry" />
        </mxCell>
        <mxCell id="-xlJ6oY1omePyM3Cr7Uz-17" style="edgeStyle=orthogonalEdgeStyle;rounded=0;orthogonalLoop=1;jettySize=auto;html=1;entryX=0.994;entryY=0.602;entryDx=0;entryDy=0;entryPerimeter=0;" edge="1" parent="1" source="-xlJ6oY1omePyM3Cr7Uz-10" target="-xlJ6oY1omePyM3Cr7Uz-5">
          <mxGeometry relative="1" as="geometry">
            <Array as="points">
              <mxPoint x="595.5" y="459" />
              <mxPoint x="595.5" y="880" />
            </Array>
          </mxGeometry>
        </mxCell>
        <mxCell id="-xlJ6oY1omePyM3Cr7Uz-10" value="set &lt;b&gt;retval &lt;/b&gt;= &lt;b&gt;ST_INVALID_ARGS&lt;/b&gt;" style="rounded=0;whiteSpace=wrap;html=1;fillColor=#d5e8d4;strokeColor=#82b366;" vertex="1" parent="1">
          <mxGeometry x="415.5" y="441.5" width="146" height="35" as="geometry" />
        </mxCell>
        <mxCell id="-xlJ6oY1omePyM3Cr7Uz-27" style="edgeStyle=orthogonalEdgeStyle;rounded=0;orthogonalLoop=1;jettySize=auto;html=1;entryX=0.5;entryY=0;entryDx=0;entryDy=0;" edge="1" parent="1" source="-xlJ6oY1omePyM3Cr7Uz-11" target="-xlJ6oY1omePyM3Cr7Uz-15">
          <mxGeometry relative="1" as="geometry" />
        </mxCell>
        <mxCell id="-xlJ6oY1omePyM3Cr7Uz-30" value="" style="edgeStyle=orthogonalEdgeStyle;rounded=0;orthogonalLoop=1;jettySize=auto;html=1;" edge="1" parent="1" source="-xlJ6oY1omePyM3Cr7Uz-11" target="-xlJ6oY1omePyM3Cr7Uz-14">
          <mxGeometry relative="1" as="geometry" />
        </mxCell>
        <mxCell id="-xlJ6oY1omePyM3Cr7Uz-11" value="Valid Config" style="rhombus;whiteSpace=wrap;html=1;fillColor=#fff2cc;strokeColor=#d6b656;" vertex="1" parent="1">
          <mxGeometry x="266.5" y="535" width="80" height="80" as="geometry" />
        </mxCell>
        <mxCell id="-xlJ6oY1omePyM3Cr7Uz-12" value="false" style="text;html=1;strokeColor=none;fillColor=none;align=center;verticalAlign=middle;whiteSpace=wrap;rounded=0;" vertex="1" parent="1">
          <mxGeometry x="346.5" y="538" width="60" height="31" as="geometry" />
        </mxCell>
        <mxCell id="-xlJ6oY1omePyM3Cr7Uz-13" value="true" style="text;html=1;strokeColor=none;fillColor=none;align=center;verticalAlign=middle;whiteSpace=wrap;rounded=0;" vertex="1" parent="1">
          <mxGeometry x="237.5" y="621" width="60" height="30" as="geometry" />
        </mxCell>
        <mxCell id="-xlJ6oY1omePyM3Cr7Uz-22" style="edgeStyle=orthogonalEdgeStyle;rounded=0;orthogonalLoop=1;jettySize=auto;html=1;" edge="1" parent="1" source="-xlJ6oY1omePyM3Cr7Uz-14">
          <mxGeometry relative="1" as="geometry">
            <mxPoint x="595.3571428571427" y="575" as="targetPoint" />
          </mxGeometry>
        </mxCell>
        <mxCell id="-xlJ6oY1omePyM3Cr7Uz-14" value="set &lt;b&gt;retval &lt;/b&gt;= &lt;b&gt;ST_INVALID_CONFIG&lt;/b&gt;" style="rounded=0;whiteSpace=wrap;html=1;fillColor=#d5e8d4;strokeColor=#82b366;" vertex="1" parent="1">
          <mxGeometry x="415.5" y="557.5" width="146" height="35" as="geometry" />
        </mxCell>
        <mxCell id="-xlJ6oY1omePyM3Cr7Uz-28" value="" style="edgeStyle=orthogonalEdgeStyle;rounded=0;orthogonalLoop=1;jettySize=auto;html=1;" edge="1" parent="1" source="-xlJ6oY1omePyM3Cr7Uz-15" target="-xlJ6oY1omePyM3Cr7Uz-16">
          <mxGeometry relative="1" as="geometry" />
        </mxCell>
        <mxCell id="-xlJ6oY1omePyM3Cr7Uz-15" value="Write on &lt;b&gt;STCTRL&lt;/b&gt; register bits:&lt;br&gt;- INT_ENABLE&lt;br&gt;- CLK SRC" style="rounded=0;whiteSpace=wrap;html=1;fillColor=#d5e8d4;strokeColor=#82b366;align=left;" vertex="1" parent="1">
          <mxGeometry x="221" y="670" width="171" height="51" as="geometry" />
        </mxCell>
        <mxCell id="-xlJ6oY1omePyM3Cr7Uz-29" value="" style="edgeStyle=orthogonalEdgeStyle;rounded=0;orthogonalLoop=1;jettySize=auto;html=1;" edge="1" parent="1" source="-xlJ6oY1omePyM3Cr7Uz-16" target="-xlJ6oY1omePyM3Cr7Uz-5">
          <mxGeometry relative="1" as="geometry" />
        </mxCell>
        <mxCell id="-xlJ6oY1omePyM3Cr7Uz-16" value="Update globals:&lt;br&gt;- clk_src&lt;br&gt;- initialized = true" style="rounded=0;whiteSpace=wrap;html=1;fillColor=#d5e8d4;strokeColor=#82b366;align=left;" vertex="1" parent="1">
          <mxGeometry x="221" y="750" width="171" height="51" as="geometry" />
        </mxCell>
        <mxCell id="-xlJ6oY1omePyM3Cr7Uz-32" value="systick_ms_delay" style="text;html=1;strokeColor=none;fillColor=none;align=center;verticalAlign=middle;whiteSpace=wrap;rounded=0;fontSize=16;fontFamily=Calibri;" vertex="1" parent="1">
          <mxGeometry x="1160" y="183" width="152" height="30" as="geometry" />
        </mxCell>
        <mxCell id="-xlJ6oY1omePyM3Cr7Uz-50" value="" style="edgeStyle=orthogonalEdgeStyle;rounded=0;orthogonalLoop=1;jettySize=auto;html=1;" edge="1" parent="1" source="-xlJ6oY1omePyM3Cr7Uz-34" target="-xlJ6oY1omePyM3Cr7Uz-46">
          <mxGeometry relative="1" as="geometry" />
        </mxCell>
        <mxCell id="-xlJ6oY1omePyM3Cr7Uz-34" value="Start" style="html=1;dashed=0;whiteSpace=wrap;shape=mxgraph.dfd.start;fillColor=#dae8fc;strokeColor=#6c8ebf;" vertex="1" parent="1">
          <mxGeometry x="1190" y="237" width="92" height="37" as="geometry" />
        </mxCell>
        <mxCell id="-xlJ6oY1omePyM3Cr7Uz-52" value="" style="edgeStyle=orthogonalEdgeStyle;rounded=0;orthogonalLoop=1;jettySize=auto;html=1;" edge="1" parent="1" source="-xlJ6oY1omePyM3Cr7Uz-35" target="-xlJ6oY1omePyM3Cr7Uz-37">
          <mxGeometry relative="1" as="geometry" />
        </mxCell>
        <mxCell id="-xlJ6oY1omePyM3Cr7Uz-59" style="edgeStyle=orthogonalEdgeStyle;rounded=0;orthogonalLoop=1;jettySize=auto;html=1;entryX=0.5;entryY=0;entryDx=0;entryDy=0;" edge="1" parent="1" source="-xlJ6oY1omePyM3Cr7Uz-35" target="-xlJ6oY1omePyM3Cr7Uz-38">
          <mxGeometry relative="1" as="geometry" />
        </mxCell>
        <mxCell id="-xlJ6oY1omePyM3Cr7Uz-35" value="systick&lt;br&gt;initialized?" style="rhombus;whiteSpace=wrap;html=1;fillColor=#fff2cc;strokeColor=#d6b656;" vertex="1" parent="1">
          <mxGeometry x="1196" y="395.75" width="80" height="80" as="geometry" />
        </mxCell>
        <mxCell id="-xlJ6oY1omePyM3Cr7Uz-48" style="edgeStyle=orthogonalEdgeStyle;rounded=0;orthogonalLoop=1;jettySize=auto;html=1;entryX=1;entryY=0.5;entryDx=0;entryDy=0;entryPerimeter=0;" edge="1" parent="1" source="-xlJ6oY1omePyM3Cr7Uz-37" target="-xlJ6oY1omePyM3Cr7Uz-45">
          <mxGeometry relative="1" as="geometry">
            <Array as="points">
              <mxPoint x="1545" y="436" />
              <mxPoint x="1545" y="1028" />
            </Array>
          </mxGeometry>
        </mxCell>
        <mxCell id="-xlJ6oY1omePyM3Cr7Uz-37" value="set &lt;b&gt;retval &lt;/b&gt;= &lt;b&gt;ST_INVALID_CONFIG&lt;/b&gt;" style="rounded=0;whiteSpace=wrap;html=1;fillColor=#d5e8d4;strokeColor=#82b366;" vertex="1" parent="1">
          <mxGeometry x="1366" y="418.25" width="146" height="35" as="geometry" />
        </mxCell>
        <mxCell id="-xlJ6oY1omePyM3Cr7Uz-60" style="edgeStyle=orthogonalEdgeStyle;rounded=0;orthogonalLoop=1;jettySize=auto;html=1;entryX=0.5;entryY=0;entryDx=0;entryDy=0;" edge="1" parent="1" source="-xlJ6oY1omePyM3Cr7Uz-38" target="-xlJ6oY1omePyM3Cr7Uz-40">
          <mxGeometry relative="1" as="geometry" />
        </mxCell>
        <mxCell id="-xlJ6oY1omePyM3Cr7Uz-38" value="Calculate number of cycles&amp;nbsp;&lt;b style=&quot;border-color: var(--border-color);&quot;&gt;(cycles)&lt;/b&gt;&lt;br&gt;&amp;nbsp;required to achieve desired ms delay (dependant on choosen&amp;nbsp;&lt;b&gt;clk_src&lt;/b&gt;)" style="rounded=0;whiteSpace=wrap;html=1;fillColor=#d5e8d4;strokeColor=#82b366;" vertex="1" parent="1">
          <mxGeometry x="1134.5" y="503.25" width="203" height="56" as="geometry" />
        </mxCell>
        <mxCell id="-xlJ6oY1omePyM3Cr7Uz-53" value="" style="edgeStyle=orthogonalEdgeStyle;rounded=0;orthogonalLoop=1;jettySize=auto;html=1;" edge="1" parent="1" source="-xlJ6oY1omePyM3Cr7Uz-40" target="-xlJ6oY1omePyM3Cr7Uz-42">
          <mxGeometry relative="1" as="geometry" />
        </mxCell>
        <mxCell id="-xlJ6oY1omePyM3Cr7Uz-61" style="edgeStyle=orthogonalEdgeStyle;rounded=0;orthogonalLoop=1;jettySize=auto;html=1;entryX=0.5;entryY=0;entryDx=0;entryDy=0;" edge="1" parent="1" source="-xlJ6oY1omePyM3Cr7Uz-40" target="-xlJ6oY1omePyM3Cr7Uz-43">
          <mxGeometry relative="1" as="geometry" />
        </mxCell>
        <mxCell id="-xlJ6oY1omePyM3Cr7Uz-40" value="&lt;b&gt;(cycles) &lt;/b&gt;count&lt;b&gt;&amp;nbsp;&lt;/b&gt;is supported?" style="rhombus;whiteSpace=wrap;html=1;fillColor=#fff2cc;strokeColor=#d6b656;" vertex="1" parent="1">
          <mxGeometry x="1178" y="577.75" width="116" height="99" as="geometry" />
        </mxCell>
        <mxCell id="-xlJ6oY1omePyM3Cr7Uz-41" value="&lt;div style=&quot;text-align: center;&quot;&gt;&lt;span style=&quot;background-color: initial;&quot;&gt;Systick timer is 24-bit&lt;/span&gt;&lt;/div&gt;meaning it only supports:&lt;br&gt;- a minimum of &lt;b&gt;1&lt;/b&gt; tick/cycle&lt;br&gt;&lt;div style=&quot;&quot;&gt;&lt;span style=&quot;background-color: initial;&quot;&gt;- a maximum of &lt;b&gt;0x00FF.FFFF&lt;/b&gt; ticks/cycles&lt;/span&gt;&lt;/div&gt;" style="shape=note;whiteSpace=wrap;html=1;backgroundOutline=1;fontColor=#000000;darkOpacity=0.05;fillColor=#FFF9B2;strokeColor=none;fillStyle=solid;direction=west;gradientDirection=north;gradientColor=#FFF2A1;shadow=1;size=20;pointerEvents=1;align=left;verticalAlign=top;" vertex="1" parent="1">
          <mxGeometry x="905" y="581" width="203" height="103.25" as="geometry" />
        </mxCell>
        <mxCell id="-xlJ6oY1omePyM3Cr7Uz-49" style="edgeStyle=orthogonalEdgeStyle;rounded=0;orthogonalLoop=1;jettySize=auto;html=1;" edge="1" parent="1" source="-xlJ6oY1omePyM3Cr7Uz-42">
          <mxGeometry relative="1" as="geometry">
            <mxPoint x="1545" y="627.25" as="targetPoint" />
          </mxGeometry>
        </mxCell>
        <mxCell id="-xlJ6oY1omePyM3Cr7Uz-42" value="set &lt;b&gt;retval &lt;/b&gt;= &lt;b&gt;ST_INVALID_ARGS&lt;/b&gt;" style="rounded=0;whiteSpace=wrap;html=1;fillColor=#d5e8d4;strokeColor=#82b366;" vertex="1" parent="1">
          <mxGeometry x="1366" y="609.75" width="146" height="35" as="geometry" />
        </mxCell>
        <mxCell id="-xlJ6oY1omePyM3Cr7Uz-62" value="" style="edgeStyle=orthogonalEdgeStyle;rounded=0;orthogonalLoop=1;jettySize=auto;html=1;" edge="1" parent="1" source="-xlJ6oY1omePyM3Cr7Uz-43" target="-xlJ6oY1omePyM3Cr7Uz-44">
          <mxGeometry relative="1" as="geometry" />
        </mxCell>
        <mxCell id="-xlJ6oY1omePyM3Cr7Uz-43" value="Set &lt;b&gt;STRELOAD &lt;/b&gt;=&lt;b&gt; &lt;/b&gt;cycles count&lt;br&gt;Set &lt;b&gt;STCURRENT&lt;/b&gt; = ZERO // clear&lt;br&gt;SET &lt;b&gt;STCTRL.ENABLE_BIT &lt;/b&gt;= TRUE" style="rounded=0;whiteSpace=wrap;html=1;fillColor=#d5e8d4;strokeColor=#82b366;" vertex="1" parent="1">
          <mxGeometry x="1124" y="710" width="224" height="57" as="geometry" />
        </mxCell>
        <mxCell id="-xlJ6oY1omePyM3Cr7Uz-65" value="" style="edgeStyle=orthogonalEdgeStyle;rounded=0;orthogonalLoop=1;jettySize=auto;html=1;" edge="1" parent="1" source="-xlJ6oY1omePyM3Cr7Uz-44" target="-xlJ6oY1omePyM3Cr7Uz-47">
          <mxGeometry relative="1" as="geometry" />
        </mxCell>
        <mxCell id="-xlJ6oY1omePyM3Cr7Uz-44" value="&lt;b&gt;STCTRL &amp;gt; COUNT_BIT (0)&lt;br&gt;== 0&lt;br&gt;&lt;/b&gt;" style="rhombus;whiteSpace=wrap;html=1;fillColor=#fff2cc;strokeColor=#d6b656;" vertex="1" parent="1">
          <mxGeometry x="1177.75" y="804" width="116.5" height="108" as="geometry" />
        </mxCell>
        <mxCell id="-xlJ6oY1omePyM3Cr7Uz-45" value="Return `&lt;b&gt;retval&lt;/b&gt;`" style="html=1;dashed=0;whiteSpace=wrap;shape=mxgraph.dfd.start;fillColor=#dae8fc;strokeColor=#6c8ebf;" vertex="1" parent="1">
          <mxGeometry x="1190" y="1009" width="92" height="37" as="geometry" />
        </mxCell>
        <mxCell id="-xlJ6oY1omePyM3Cr7Uz-51" value="" style="edgeStyle=orthogonalEdgeStyle;rounded=0;orthogonalLoop=1;jettySize=auto;html=1;" edge="1" parent="1" source="-xlJ6oY1omePyM3Cr7Uz-46" target="-xlJ6oY1omePyM3Cr7Uz-35">
          <mxGeometry relative="1" as="geometry" />
        </mxCell>
        <mxCell id="-xlJ6oY1omePyM3Cr7Uz-46" value="set &lt;b&gt;retval &lt;/b&gt;= &lt;b&gt;ST_OK&lt;/b&gt;" style="rounded=0;whiteSpace=wrap;html=1;fillColor=#d5e8d4;strokeColor=#82b366;" vertex="1" parent="1">
          <mxGeometry x="1173" y="324" width="126" height="35" as="geometry" />
        </mxCell>
        <mxCell id="-xlJ6oY1omePyM3Cr7Uz-67" value="" style="edgeStyle=orthogonalEdgeStyle;rounded=0;orthogonalLoop=1;jettySize=auto;html=1;" edge="1" parent="1" source="-xlJ6oY1omePyM3Cr7Uz-47" target="-xlJ6oY1omePyM3Cr7Uz-45">
          <mxGeometry relative="1" as="geometry" />
        </mxCell>
        <mxCell id="-xlJ6oY1omePyM3Cr7Uz-47" value="// disable systick&lt;br&gt;Clear&amp;nbsp;&lt;b&gt;STCTRL.ENABLE_BIT&lt;/b&gt;" style="rounded=0;whiteSpace=wrap;html=1;fillColor=#d5e8d4;strokeColor=#82b366;" vertex="1" parent="1">
          <mxGeometry x="1127" y="941" width="218" height="48" as="geometry" />
        </mxCell>
        <mxCell id="-xlJ6oY1omePyM3Cr7Uz-54" value="false" style="text;html=1;strokeColor=none;fillColor=none;align=center;verticalAlign=middle;whiteSpace=wrap;rounded=0;" vertex="1" parent="1">
          <mxGeometry x="1282" y="403.5" width="60" height="31" as="geometry" />
        </mxCell>
        <mxCell id="-xlJ6oY1omePyM3Cr7Uz-55" value="true" style="text;html=1;strokeColor=none;fillColor=none;align=center;verticalAlign=middle;whiteSpace=wrap;rounded=0;" vertex="1" parent="1">
          <mxGeometry x="1156" y="465" width="60" height="30" as="geometry" />
        </mxCell>
        <mxCell id="-xlJ6oY1omePyM3Cr7Uz-56" value="false" style="text;html=1;strokeColor=none;fillColor=none;align=center;verticalAlign=middle;whiteSpace=wrap;rounded=0;" vertex="1" parent="1">
          <mxGeometry x="1294.25" y="592" width="60" height="31" as="geometry" />
        </mxCell>
        <mxCell id="-xlJ6oY1omePyM3Cr7Uz-57" value="true" style="text;html=1;strokeColor=none;fillColor=none;align=center;verticalAlign=middle;whiteSpace=wrap;rounded=0;" vertex="1" parent="1">
          <mxGeometry x="1171" y="676.75" width="60" height="30" as="geometry" />
        </mxCell>
        <mxCell id="-xlJ6oY1omePyM3Cr7Uz-63" value="false" style="text;html=1;strokeColor=none;fillColor=none;align=center;verticalAlign=middle;whiteSpace=wrap;rounded=0;" vertex="1" parent="1">
          <mxGeometry x="1164" y="907" width="60" height="31" as="geometry" />
        </mxCell>
        <mxCell id="-xlJ6oY1omePyM3Cr7Uz-64" style="edgeStyle=orthogonalEdgeStyle;rounded=0;orthogonalLoop=1;jettySize=auto;html=1;" edge="1" parent="1" source="-xlJ6oY1omePyM3Cr7Uz-44" target="-xlJ6oY1omePyM3Cr7Uz-44">
          <mxGeometry relative="1" as="geometry" />
        </mxCell>
        <mxCell id="-xlJ6oY1omePyM3Cr7Uz-66" value="true" style="text;html=1;strokeColor=none;fillColor=none;align=center;verticalAlign=middle;whiteSpace=wrap;rounded=0;" vertex="1" parent="1">
          <mxGeometry x="1324" y="841" width="60" height="30" as="geometry" />
        </mxCell>
      </root>
    </mxGraphModel>
  </diagram>
</mxfile>
